Coordinates
version=1
nRows=11
nColumns=63
inDegrees=yes

Units are S.I. units (second, meters, Newtons, ...)
If the header above contains a line with 'inDegrees', this indicates whether rotational values are in degrees (yes) or radians (no).

endheader
time	pelvis_tilt	pelvis_list	pelvis_rotation	pelvis_tx	pelvis_ty	pelvis_tz	hip_flexion_r	hip_adduction_r	hip_rotation_r	knee_angle_r	knee_angle_r_beta	ankle_angle_r	subtalar_angle_r	mtp_angle_r	hip_flexion_l	hip_adduction_l	hip_rotation_l	knee_angle_l	knee_angle_l_beta	ankle_angle_l	subtalar_angle_l	mtp_angle_l	L5_S1_Flex_Ext	L5_S1_Lat_Bending	L5_S1_axial_rotation	L4_L5_Flex_Ext	L4_L5_Lat_Bending	L4_L5_axial_rotation	L3_L4_Flex_Ext	L3_L4_Lat_Bending	L3_L4_axial_rotation	L2_L3_Flex_Ext	L2_L3_Lat_Bending	L2_L3_axial_rotation	L1_L2_Flex_Ext	L1_L2_Lat_Bending	L1_L2_axial_rotation	L1_T12_Flex_Ext	L1_T12_Lat_Bending	L1_T12_axial_rotation	Abs_r3	Abs_r2	Abs_r1	Abs_t1	Abs_t2	neck_flexion	neck_bending	neck_rotation	arm_flex_r	arm_add_r	arm_rot_r	elbow_flex_r	pro_sup_r	wrist_flex_r	wrist_dev_r	arm_flex_l	arm_add_l	arm_rot_l	elbow_flex_l	pro_sup_l	wrist_flex_l	wrist_dev_l
1.305085	-0.256006	-0.189582	82.027508	0.248486	0.747875	0.758740	5.952345	-0.026072	-11.634143	14.149884	0.246962	28.830345	18.301976	0.000000	1.751953	-2.424295	7.493587	8.828927	0.154094	15.473238	-17.622167	0.000000	-0.017019	1.132127	-1.434269	-0.031606	1.505728	-1.523911	-0.027961	2.752653	-1.523911	-0.019451	2.752653	-1.254985	-0.015804	2.308633	-1.165344	-0.009725	1.753664	-1.075702	-0.121565	12.806843	-7.976974	0.000000	0.000000	19.956764	-11.896233	26.033704	1.294048	-30.531761	43.579524	51.278535	60.262346	-2.832936	14.079797	28.753204	-77.000697	-18.723083	95.682017	88.111029	-3.542253	21.903117
1.322034	-0.209851	-0.074848	82.284115	0.248438	0.747874	0.758536	5.806556	-0.008879	-11.896089	14.190505	0.247671	28.833385	18.262741	0.000000	1.662840	-2.460345	7.706481	8.893094	0.155214	15.536899	-17.587266	0.000000	-0.018677	1.142570	-1.476845	-0.034685	1.519618	-1.569148	-0.030685	2.778044	-1.569148	-0.021346	2.778044	-1.292240	-0.017344	2.329928	-1.199937	-0.010672	1.769840	-1.107634	-0.133409	12.924977	-8.213771	0.000000	0.000000	18.656257	-11.721605	25.856885	0.916148	-30.818602	43.568183	51.582544	60.505956	-2.913809	14.382243	24.951550	-76.122226	-19.925697	95.078610	89.059678	-3.687288	20.058423
1.338983	-0.169714	0.033348	82.537750	0.248347	0.747920	0.758152	5.656602	-0.003330	-12.159303	14.236070	0.248466	28.828597	18.216839	0.000000	1.571064	-2.485993	7.929804	8.954602	0.156287	15.581796	-17.563559	0.000000	-0.018187	1.152817	-1.518824	-0.033774	1.533246	-1.613750	-0.029879	2.802959	-1.613750	-0.020785	2.802959	-1.328971	-0.016888	2.350824	-1.234044	-0.010392	1.785713	-1.139118	-0.129905	13.040895	-8.447243	0.000000	0.000000	17.420290	-11.518792	25.809731	0.549321	-31.130291	43.607069	51.874914	60.681698	-2.913125	14.457210	22.204090	-74.954478	-20.335332	94.461995	89.689022	-3.761926	18.412383
1.355932	-0.139399	0.102555	82.778149	0.248248	0.748013	0.757595	5.529401	-0.002625	-12.403216	14.264340	0.248960	28.803830	18.169245	0.000000	1.504241	-2.504380	8.147758	9.000555	0.157089	15.576933	-17.544657	0.000000	-0.012662	1.164582	-1.570001	-0.023514	1.548894	-1.668126	-0.020802	2.831565	-1.668126	-0.014471	2.831565	-1.373751	-0.011758	2.374816	-1.275626	-0.007235	1.803938	-1.177501	-0.090442	13.173987	-8.731873	0.000000	0.000000	16.325819	-11.359664	25.979823	0.224476	-31.434846	43.655657	52.140641	60.879060	-2.832049	14.418495	20.343015	-73.573368	-20.152822	93.918333	90.041649	-3.865424	16.821510
1.372881	-0.148006	0.146529	82.986339	0.248230	0.748121	0.756924	5.431847	-0.035009	-12.607571	14.298601	0.249558	28.800870	18.124126	0.000000	1.456594	-2.487117	8.355509	9.038258	0.157747	15.533334	-17.546321	0.000000	-0.005667	1.172420	-1.632896	-0.010525	1.559319	-1.734952	-0.009311	2.850622	-1.734952	-0.006477	2.850622	-1.428784	-0.005263	2.390799	-1.326728	-0.003238	1.816079	-1.224672	-0.040481	13.262650	-9.081678	0.000000	0.000000	15.407803	-11.188872	26.361252	0.013675	-31.682440	43.822945	52.328562	60.997672	-2.687681	14.197399	19.753236	-72.141848	-19.007739	93.567744	89.843721	-4.022578	15.667243
1.389831	-0.182865	0.150106	83.150192	0.248226	0.748293	0.756180	5.377422	-0.086413	-12.760904	14.325503	0.250027	28.782577	18.077562	0.000000	1.439165	-2.447146	8.518200	9.056168	0.158060	15.435238	-17.550784	0.000000	0.004540	1.180213	-1.711793	0.008432	1.569684	-1.818780	0.007459	2.869571	-1.818780	0.005189	2.869571	-1.497819	0.004216	2.406691	-1.390832	0.002594	1.828150	-1.283845	0.032430	13.350810	-9.520478	0.000000	0.000000	14.694412	-11.109778	27.020528	0.024791	-31.927820	44.360557	52.402572	60.858559	-2.532776	13.799867	20.232836	-70.784392	-17.242590	93.537108	89.672898	-4.010452	15.043338
1.406780	-0.256394	0.125003	83.242037	0.248295	0.748496	0.755444	5.367568	-0.168004	-12.847222	14.355321	0.250548	28.764233	18.036025	0.000000	1.445145	-2.373557	8.607080	9.056666	0.158069	15.302738	-17.558411	0.000000	0.015708	1.184141	-1.789378	0.029172	1.574908	-1.901215	0.025807	2.879121	-1.901215	0.017953	2.879121	-1.565706	0.014587	2.414701	-1.453870	0.008976	1.834235	-1.342034	0.112203	13.395243	-9.951986	0.000000	0.000000	14.188997	-11.090383	27.817020	0.149973	-32.121520	45.026190	52.370699	60.644212	-2.371834	13.287504	22.055682	-69.531768	-14.583528	93.820572	89.475916	-3.827832	14.981764
1.423729	-0.369501	0.071671	83.239290	0.248453	0.748710	0.754789	5.408542	-0.279721	-12.853712	14.390004	0.251153	28.735626	18.000738	0.000000	1.478780	-2.266382	8.591024	9.044251	0.157852	15.149608	-17.566247	0.000000	0.026977	1.183321	-1.853270	0.050099	1.573817	-1.969099	0.044321	2.877126	-1.969099	0.030832	2.877126	-1.621611	0.025051	2.413028	-1.505782	0.015415	1.832964	-1.389952	0.192694	13.385962	-10.307331	0.000000	0.000000	13.889633	-11.127215	28.650958	0.333003	-32.250709	45.709367	52.245531	60.424251	-2.226617	12.701395	24.918287	-68.362874	-11.365910	94.360558	89.327603	-3.349321	15.285522
1.440678	-0.521570	-0.013923	83.140266	0.248691	0.748920	0.754259	5.506334	-0.421349	-12.789847	14.428677	0.251828	28.684279	17.976475	0.000000	1.547999	-2.127371	8.469557	9.021467	0.157454	14.984555	-17.570684	0.000000	0.038108	1.177644	-1.899255	0.070771	1.566266	-2.017958	0.062608	2.863323	-2.017958	0.043554	2.863323	-1.661848	0.035388	2.401451	-1.543144	0.021775	1.824170	-1.424441	0.272205	13.321741	-10.563085	0.000000	0.000000	13.781068	-11.194782	29.476590	0.532587	-32.305254	46.304858	52.048196	60.327439	-2.086900	12.097513	28.148750	-67.254766	-8.185699	95.056782	89.210205	-2.769690	15.489480
1.457627	-0.714507	-0.129460	82.972097	0.248987	0.749106	0.753898	5.658040	-0.597207	-12.679839	14.469546	0.252541	28.614494	17.958612	0.000000	1.662725	-1.953534	8.265472	9.002631	0.157126	14.814593	-17.567954	0.000000	0.047993	1.166704	-1.935439	0.089128	1.551716	-2.056404	0.078848	2.836724	-2.056404	0.054852	2.836724	-1.693509	0.044567	2.379143	-1.572544	0.027423	1.807224	-1.451579	0.342811	13.197988	-10.764329	0.000000	0.000000	13.829522	-11.242672	30.316372	0.787078	-32.289348	46.875390	51.795771	60.282051	-1.985126	11.524812	31.078739	-66.164660	-5.699023	95.840480	89.121713	-1.936136	15.413771
1.474576	-0.959172	-0.251035	82.737995	0.249375	0.749256	0.753786	5.852338	-0.820614	-12.524965	14.526982	0.253544	28.541422	17.947714	0.000000	1.803728	-1.733097	7.990592	8.988057	0.156871	14.634859	-17.557740	0.000000	0.055514	1.146517	-1.941157	0.103096	1.524868	-2.062479	0.091204	2.787641	-2.062479	0.063447	2.787641	-1.698512	0.051551	2.337977	-1.577190	0.031721	1.775955	-1.455868	0.396533	12.969630	-10.796132	0.000000	0.000000	13.912924	-11.268878	30.932294	0.977666	-32.180822	47.222208	51.517060	60.307462	-1.918276	11.005717	34.712684	-65.008082	-2.785447	96.545727	89.059294	-1.021447	14.927423
